<?xml version="1.0" standalone="no"?>
<!DOCTYPE svg PUBLIC "-//W3C//DTD SVG 20010904//EN"
 "http://www.w3.org/TR/2001/REC-SVG-20010904/DTD/svg10.dtd">
<svg version="1.0" xmlns="http://www.w3.org/2000/svg"
 width="186.000000pt" height="186.000000pt" viewBox="0 0 186.000000 186.000000"
 preserveAspectRatio="xMidYMid meet">

<g transform="translate(0.000000,186.000000) scale(0.100000,-0.100000)"
fill="#000000" stroke="none">
<path d="M815 1680 c-237 -35 -453 -188 -559 -398 -28 -56 -31 -66 -16 -57 5
3 20 -1 34 -10 14 -9 27 -12 30 -7 3 6 -1 13 -10 16 -22 8 -8 25 16 19 12 -3
20 -14 20 -27 1 -21 1 -21 15 -2 19 25 19 46 0 46 -20 0 -19 9 2 32 16 18 16
18 0 12 -9 -3 -17 -2 -17 3 0 13 31 40 49 45 8 2 22 10 31 18 16 14 16 17 -3
37 -28 31 -13 42 18 13 34 -32 31 -51 -10 -88 -29 -25 -35 -37 -33 -64 2 -36
-28 -92 -45 -81 -5 3 -16 -2 -23 -11 -16 -22 -46 -17 -54 9 -10 38 -38 26 -54
-24 -62 -190 -38 -424 62 -601 100 -177 300 -326 492 -366 94 -19 260 -19 346
1 86 20 212 80 291 138 114 85 213 230 268 392 23 67 32 264 15 347 -61 313
-323 564 -634 607 -85 12 -155 12 -231 1z m47 -71 c3 -39 -8 -65 -16 -37 -14
44 -15 78 -2 78 9 0 15 -15 18 -41z m-38 15 c9 -24 7 -62 -4 -69 -5 -3 -18 -2
-27 4 -14 7 -23 5 -38 -9 -11 -11 -36 -21 -55 -22 -19 -2 -42 -11 -52 -20 -27
-27 -55 -22 -73 13 -20 37 -11 52 11 20 15 -21 17 -21 29 -4 10 13 17 15 25 7
18 -18 52 -5 45 17 -7 21 5 25 22 8 8 -8 16 -8 30 0 17 10 17 10 0 11 -11 0
-15 5 -11 11 3 6 24 9 45 7 35 -3 38 -2 33 19 -7 26 11 32 20 7z m291 -26 c-7
-28 -6 -29 14 -16 16 10 23 10 33 0 9 -9 8 -12 -7 -12 -19 -1 -19 -1 -1 -11
19 -12 36 1 36 29 0 6 5 12 11 12 7 0 9 -12 5 -34 l-6 -33 61 -14 c44 -10 63
-19 69 -34 7 -19 7 -19 21 3 8 12 17 22 21 22 17 0 7 -28 -17 -50 -23 -22 -28
-23 -48 -10 -12 7 -48 26 -79 42 -32 16 -58 32 -58 37 0 4 -11 6 -24 4 -16 -3
-31 2 -45 16 -11 11 -23 16 -26 11 -11 -17 -61 -11 -80 10 -14 15 -16 23 -7
32 8 8 13 7 18 -5 3 -9 17 -17 30 -17 29 0 32 16 4 25 -11 3 -20 11 -20 16 0
16 18 10 43 -15 l25 -25 6 30 c3 18 10 28 16 24 7 -4 8 -19 5 -37z m-345 22
c0 -5 -4 -10 -10 -10 -5 0 -10 5 -10 10 0 6 5 10 10 10 6 0 10 -4 10 -10z
m179 -18 c7 -13 6 -27 -4 -45 l-14 -27 47 0 c109 0 261 -66 358 -154 77 -70
135 -159 169 -261 25 -74 27 -89 23 -205 -6 -142 -21 -196 -89 -300 -118 -183
-333 -292 -545 -276 -163 12 -290 73 -404 193 -112 117 -160 241 -160 411 0
165 56 297 176 418 88 89 200 148 316 166 55 9 74 16 71 25 -3 7 2 13 11 13
13 0 15 4 7 18 -7 13 -6 23 1 30 17 17 26 15 37 -6z m301 -42 c0 -5 -4 -10
-10 -10 -5 0 -10 5 -10 10 0 6 5 10 10 10 6 0 10 -4 10 -10z m-722 -52 c-3 -7
-13 -15 -24 -17 -16 -3 -17 -1 -5 13 16 19 34 21 29 4z m49 -32 c-3 -8 -19
-22 -35 -30 -28 -14 -31 -14 -48 6 -19 21 -19 21 5 15 32 -8 66 10 52 27 -16
19 0 29 17 12 8 -8 12 -21 9 -30z m803 -36 c-20 -27 -40 -39 -40 -23 0 3 12
22 27 41 32 42 44 26 13 -18z m-925 -10 c16 -16 25 -33 22 -37 -8 -7 -67 45
-67 59 0 16 17 8 45 -22z m997 -32 c-24 -43 -46 -55 -66 -39 -9 7 -13 17 -10
23 4 5 11 5 18 -1 9 -8 18 -4 34 13 11 13 18 27 15 30 -4 3 1 6 10 6 15 0 15
-3 -1 -32z m48 -6 c0 -4 -9 -13 -20 -20 -24 -14 -27 -37 -4 -28 23 9 36 -2 25
-23 -6 -10 -6 -23 0 -32 7 -11 9 -10 9 5 0 27 26 3 33 -30 6 -35 -7 -38 -42
-8 -17 14 -35 23 -40 20 -15 -10 -29 17 -26 53 1 22 10 40 26 52 26 20 39 24
39 11z m-1040 -52 c0 -5 -4 -10 -10 -10 -5 0 -10 5 -10 10 0 6 5 10 10 10 6 0
10 -4 10 -10z m1025 -90 c3 -5 1 -10 -4 -10 -6 0 -11 5 -11 10 0 6 2 10 4 10
3 0 8 -4 11 -10z m145 -157 c0 -3 -7 -15 -17 -25 -15 -17 -15 -18 5 -18 26 0
30 -20 5 -21 -15 0 -14 -3 5 -16 28 -20 28 -47 0 -67 l-22 -16 22 0 c12 0 22
-4 22 -10 0 -5 -13 -10 -30 -10 -37 0 -40 -18 -3 -22 14 -2 28 -9 31 -16 3
-10 -5 -13 -29 -10 -19 2 -34 -2 -36 -9 -3 -8 6 -10 31 -6 37 6 51 -9 20 -21
-12 -5 -13 -10 -5 -19 7 -10 7 -25 0 -53 -15 -53 -21 -58 -63 -44 -32 10 -35
14 -30 38 10 43 21 48 49 22 14 -13 25 -21 25 -18 0 4 2 13 6 21 3 9 -5 19
-25 27 -30 12 -30 13 -25 69 4 31 10 59 16 62 5 3 2 12 -7 19 -20 17 -19 47 3
59 15 9 15 10 -5 11 -28 0 -29 7 -6 33 16 17 17 19 1 16 -9 -2 -17 1 -18 6 -1
8 15 14 73 24 4 0 7 -2 7 -6z m-1336 -83 c4 -5 -2 -14 -15 -20 -20 -11 -20
-13 -6 -22 29 -16 19 -28 -23 -28 -22 0 -40 5 -40 10 0 6 6 10 13 10 8 0 9 3
1 8 -9 5 -12 41 -5 59 2 5 67 -10 75 -17z m-41 -91 c21 -6 37 -15 35 -21 -5
-14 -79 -41 -87 -32 -3 4 0 9 7 11 14 5 16 33 2 33 -5 0 -10 5 -10 10 0 13 6
12 53 -1z m45 -89 c-2 -16 0 -31 6 -34 7 -2 5 -14 -5 -34 -16 -28 -16 -29 2
-25 11 3 19 1 19 -5 0 -5 -11 -13 -24 -16 -13 -3 -31 -9 -40 -12 -21 -8 -21
14 0 37 15 16 14 17 -4 12 -31 -8 -37 26 -7 37 34 13 32 22 -2 14 -25 -6 -26
-5 -15 8 10 13 10 17 -5 22 -15 6 -15 8 -3 16 8 6 30 10 49 10 31 0 33 -2 29
-30z m37 -141 c7 -22 -5 -43 -12 -21 -3 6 -9 12 -14 12 -4 0 -6 -7 -3 -15 4
-8 1 -15 -5 -15 -6 0 -11 5 -11 10 0 6 -5 10 -11 10 -6 0 -8 -9 -4 -20 7 -24
-10 -27 -19 -4 -11 28 -7 35 27 49 42 19 45 18 52 -6z m1234 10 c36 -13 37
-32 2 -37 -20 -3 -21 -5 -6 -16 19 -14 11 -46 -12 -46 -10 0 -14 -7 -10 -20 7
-27 -1 -25 -35 7 -39 37 -35 47 15 40 l42 -6 -32 16 c-39 20 -41 28 -10 38 13
4 17 8 10 12 -15 5 -18 23 -4 23 4 0 22 -5 40 -11z m-1199 -66 c0 -9 -57 -43
-71 -43 -20 0 -7 17 24 33 37 18 47 20 47 10z m6 -49 c-5 -18 -3 -24 4 -19 15
9 60 -33 60 -56 0 -39 -62 -52 -84 -17 -8 14 -6 21 9 33 20 16 19 16 -2 6 -32
-16 -36 -14 -29 13 5 21 3 23 -17 19 -20 -4 -19 -2 8 21 40 34 59 34 51 0z
m1088 -23 c-7 -31 11 -50 29 -32 8 8 7 11 -6 11 -10 0 -14 5 -11 15 8 19 28
19 43 1 18 -21 -18 -61 -47 -52 -31 10 -46 41 -32 66 16 30 30 24 24 -9z m15
-84 c1 -5 -8 -5 -19 -2 -21 7 -29 -10 -7 -18 6 -2 9 -8 5 -12 -4 -4 -14 -2
-22 4 -12 10 -15 8 -18 -15 -4 -39 -31 -53 -58 -29 -26 23 -22 57 8 70 12 5
22 15 22 22 0 26 33 32 62 10 15 -12 27 -26 27 -30z m-1009 15 c0 -5 -9 -17
-20 -27 -11 -10 -20 -22 -20 -27 0 -13 22 -9 42 9 10 9 21 13 24 10 11 -11
-39 -47 -61 -44 -28 3 -31 35 -4 63 23 24 39 31 39 16z m93 -77 c22 -19 46
-35 52 -35 7 0 20 -9 30 -20 18 -19 18 -22 2 -56 -15 -31 -19 -33 -32 -20 -8
8 -15 23 -16 33 0 10 -3 13 -6 6 -2 -7 -11 -13 -19 -13 -13 0 -12 4 0 29 21
39 7 48 -20 14 -27 -33 -42 -25 -20 10 16 24 13 57 -6 57 -6 0 -8 -6 -5 -14 3
-8 0 -22 -8 -32 -11 -15 -15 -16 -29 -5 -21 18 -21 32 1 24 13 -5 15 -2 10 12
-6 15 7 45 20 45 3 0 23 -16 46 -35z m734 -19 c-4 -10 2 -16 16 -18 13 -2 23
-11 25 -23 2 -16 -7 -25 -39 -39 l-41 -18 -22 26 c-14 18 -25 23 -34 17 -23
-14 -10 -46 17 -43 14 1 21 -2 19 -10 -7 -20 -38 -22 -57 -4 -17 16 -18 15
-14 -9 7 -33 -3 -32 -21 3 l-15 27 -1 -32 c0 -39 -20 -44 -44 -11 l-17 23 6
-27 c3 -16 1 -28 -5 -28 -5 0 -10 5 -10 10 0 6 -4 10 -10 10 -5 0 -7 -7 -4
-15 4 -9 0 -15 -9 -15 -19 0 -32 71 -14 82 21 14 59 9 73 -9 12 -17 13 -16 14
5 0 26 28 41 40 22 6 -9 9 -8 14 6 7 22 84 69 94 58 4 -4 1 -9 -5 -11 -7 -3
-13 -9 -13 -14 0 -4 7 -6 15 -3 8 4 15 14 15 23 0 20 8 31 23 31 5 0 7 -6 4
-14z m-577 -67 c0 -5 -7 -9 -16 -9 -14 0 -14 -3 -4 -15 10 -13 9 -15 -11 -15
l-24 -1 25 -14 c37 -21 53 -20 39 4 -15 23 -4 53 18 49 22 -4 29 -28 9 -28
-14 0 -14 -3 -4 -20 21 -32 -2 -46 -51 -31 -51 15 -54 21 -36 64 11 28 19 34
35 30 11 -3 20 -9 20 -14z m133 -47 c-2 -16 1 -21 9 -16 8 5 9 2 5 -10 -4 -10
-7 -22 -7 -27 0 -6 -12 -9 -27 -7 -24 3 -28 7 -26 32 3 44 11 58 30 54 12 -3
17 -12 16 -26z m147 18 c0 -6 -4 -10 -10 -10 -18 0 -11 -20 8 -20 15 -1 15 -2
-2 -15 -17 -13 -18 -15 -3 -15 36 0 15 -18 -25 -22 -50 -6 -87 8 -51 18 l22 6
-22 19 c-20 17 -20 20 -6 31 20 16 89 22 89 8z"/>
<path d="M933 1276 c0 -8 11 -19 23 -25 13 -6 26 -21 30 -35 6 -25 -10 -66
-26 -66 -6 0 -10 -7 -10 -15 0 -10 11 -15 35 -15 19 0 35 -4 35 -10 0 -5 -16
-10 -35 -10 -32 0 -35 -2 -35 -30 0 -16 5 -30 10 -30 6 0 10 5 10 10 0 6 28
10 65 10 61 0 65 -1 65 -23 0 -33 21 -55 55 -59 30 -3 30 -4 28 -58 -2 -30 -8
-67 -14 -82 l-11 -28 -104 0 -104 0 0 -81 0 -82 42 7 c100 16 191 88 236 185
21 44 26 71 27 131 0 66 -5 85 -33 143 -38 77 -94 128 -172 158 -60 23 -117
25 -117 5z"/>
<path d="M892 1238 c-15 -15 -15 -61 0 -76 26 -26 38 -13 38 38 0 51 -12 64
-38 38z"/>
<path d="M693 969 c4 -33 16 -81 26 -105 l20 -44 96 0 96 0 -3 103 -3 102
-119 3 -119 3 6 -62z m65 18 c4 -21 -27 -35 -38 -17 -12 19 0 42 19 38 9 -2
17 -11 19 -21z"/>
<path d="M1590 990 c-11 -7 -12 -12 -3 -21 14 -14 46 -4 41 13 -6 16 -20 19
-38 8z"/>
<path d="M1560 746 c0 -7 9 -16 21 -19 20 -5 20 -5 3 14 -20 23 -24 23 -24 5z"/>
<path d="M387 516 c-12 -10 -15 -16 -7 -21 16 -10 40 2 40 20 0 18 -9 19 -33
1z"/>
<path d="M1362 444 c2 -11 11 -20 22 -22 13 -3 17 1 14 14 -2 11 -11 20 -22
22 -13 3 -17 -1 -14 -14z"/>
<path d="M1270 346 c-19 -19 -10 -25 20 -15 17 6 30 15 30 19 0 12 -38 8 -50
-4z"/>
<path d="M936 282 c-3 -6 -1 -14 5 -17 15 -10 25 3 12 16 -7 7 -13 7 -17 1z"/>
</g>
</svg>
